{"title":"XArt - Enjoy My Backdoor (Misty)[06-13-2014].mp4","uid":15707381,"size":485495929,"categoryP":"porn","categoryS":"hd___movies","magnet":"?xt=urn:btih:1d8437ce2a7cb4121fdcfb7f358c23d998a1e726&amp;dn=XArt+-+Enjoy+My+Backdoor+%28Misty%29%5B06-13-2014%5D.mp4&amp;tr=udp%3A%2F%2Ftracker.leechers-paradise.org%3A6969&amp;tr=udp%3A%2F%2Fzer0day.ch%3A1337&amp;tr=udp%3A%2F%2Fopen.demonii.com%3A1337&amp;tr=udp%3A%2F%2Ftracker.coppersurfer.tk%3A6969&amp;tr=udp%3A%2F%2Fexodus.desync.com%3A6969","seeders":1,"leechers":1,"uploader":"freemetoo","files":1,"time":1472535432,"description":"General\r\nFormat                                   : MPEG-4\r\nFormat profile                           : Base Media\r\nCodec ID                                 : isom (isom/iso2/mp41)\r\nFile size                                : 463 MiB\r\nDuration                                 : 20mn 1s\r\nOverall bit rate mode                    : Variable\r\nOverall bit rate                         : 3 233 Kbps\r\nWriting application                      : Lavf55.33.101\r\n\r\nVideo\r\nID                                       : 1\r\nFormat                                   : MPEG-4 Visual\r\nFormat profile                           :   \r\nFormat settings, BVOP                    : No\r\nFormat settings, QPel                    : No\r\nFormat settings, GMC                     : No warppoints\r\nFormat settings, Matrix                  : Default (H.263)\r\nCodec ID                                 : 20\r\nDuration                                 : 20mn 1s\r\nBit rate mode                            : Variable\r\nBit rate                                 : 3 101 Kbps\r\nMaximum bit rate                         : 3 500 Kbps\r\nWidth                                    : 960 pixels\r\nHeight                                   : 540 pixels\r\nDisplay aspect ratio                     : 16:9\r\nFrame rate mode                          : Constant\r\nFrame rate                               : 25.000 fps\r\nColor space                              : YUV\r\nChroma subsampling                       : 4:2:0\r\nBit depth                                : 8 bits\r\nScan type                                : Progressive\r\nCompression mode                         : Lossy\r\nBits/(Pixel*Frame)                       : 0.239\r\nStream size                              : 444 MiB (96%)\r\nWriting library                          : Lavc55.52.102\r\nLanguage                                 : English\r\n\r\nAudio\r\nID                                       : 2\r\nFormat                                   : AAC\r\nFormat/Info                              : Advanced Audio Codec\r\nFormat profile                           : LC\r\nCodec ID                                 : 40\r\nDuration                                 : 20mn 1s\r\nBit rate mode                            : Constant\r\nBit rate                                 : 128 Kbps\r\nChannel(s)                               : 2 channels\r\nChannel positions                        : Front: L R\r\nSampling rate                            : 48.0 KHz\r\nFrame rate                               : 46.875 fps (1024 spf)\r\nCompression mode                         : Lossy\r\nStream size                              : 18.3 MiB (4%)\r\nLanguage                                 : English\r\nDefault                                  : Yes\r\nAlternate group                          : 1","torrent":{"xt":"urn:btih:1d8437ce2a7cb4121fdcfb7f358c23d998a1e726","amp;dn":"XArt+-+Enjoy+My+Backdoor+%28Misty%29%5B06-13-2014%5D.mp4","amp;tr":["udp%3A%2F%2Ftracker.leechers-paradise.org%3A6969","udp%3A%2F%2Fzer0day.ch%3A1337","udp%3A%2F%2Fopen.demonii.com%3A1337","udp%3A%2F%2Ftracker.coppersurfer.tk%3A6969","udp%3A%2F%2Fexodus.desync.com%3A6969"],"infoHash":"1d8437ce2a7cb4121fdcfb7f358c23d998a1e726","infoHashBuffer":{"type":"Buffer","data":[29,132,55,206,42,124,180,18,31,220,251,127,53,140,35,217,152,161,231,38]},"announce":[],"urlList":[]}}